<?xml version="1.0" standalone="no"?>
<!DOCTYPE svg PUBLIC "-//W3C//DTD SVG 20010904//EN"
 "http://www.w3.org/TR/2001/REC-SVG-20010904/DTD/svg10.dtd">
<svg version="1.0" xmlns="http://www.w3.org/2000/svg"
 width="1254.000000pt" height="1254.000000pt" viewBox="0 0 1254.000000 1254.000000"
 preserveAspectRatio="xMidYMid meet">

<g transform="translate(0.000000,1254.000000) scale(0.100000,-0.100000)"
fill="#000000" stroke="none">
<path d="M5400 10590 c-1956 -5 -2180 -7 -2225 -21 -159 -51 -261 -109 -370
-211 -143 -134 -223 -263 -272 -443 l-28 -100 -3 -3665 c-3 -4040 -7 -3733 59
-3913 80 -219 290 -432 511 -517 166 -64 -69 -60 3209 -60 l2996 0 95 24 c118
30 233 87 329 164 208 166 321 364 349 616 8 61 10 1030 8 2991 l-3 2900 -28
57 c-30 62 -82 120 -411 463 -368 384 -473 492 -935 965 -662 679 -680 696
-748 727 -71 33 230 31 -2533 23z m2065 -1280 l0 -735 23 -73 c50 -163 150
-311 272 -403 60 -46 190 -111 260 -130 33 -9 234 -14 750 -18 l705 -6 0
-2735 0 -2735 -33 -67 c-40 -82 -111 -149 -189 -178 l-56 -21 -2921 -1 -2921
0 -57 22 c-72 27 -154 100 -193 172 l-30 53 -5 335 c-3 184 -5 1831 -5 3660
l0 3325 27 57 c52 112 153 191 265 207 32 5 969 8 2083 7 l2025 -1 0 -735z
m1545 -611 l210 -217 -82 -6 c-46 -3 -279 -4 -518 -2 -411 2 -438 4 -480 23
-25 11 -60 35 -78 54 -61 62 -62 76 -62 653 l1 521 399 -405 c220 -223 495
-502 610 -621z"/>
<path d="M6168 7507 c-98 -37 -158 -90 -209 -187 l-24 -45 -3 -1130 -2 -1129
-318 316 c-300 300 -320 317 -371 332 -69 20 -133 20 -201 0 -73 -21 -167
-115 -194 -192 -25 -72 -19 -188 14 -252 15 -30 154 -178 409 -435 212 -214
474 -479 581 -588 217 -220 253 -246 363 -254 80 -7 159 15 215 59 22 18 242
227 489 463 543 522 624 599 686 655 109 98 142 264 78 389 -33 63 -121 137
-186 156 -70 21 -164 17 -220 -10 -25 -12 -152 -130 -346 -322 -168 -167 -308
-303 -312 -303 -4 0 -8 507 -9 1128 l-3 1127 -27 50 c-58 110 -168 177 -298
182 -45 2 -89 -2 -112 -10z"/>
<path d="M4115 4261 c-88 -23 -159 -83 -199 -170 -20 -44 -21 -60 -21 -386 l0
-340 29 -89 c77 -233 275 -412 511 -461 110 -22 3552 -23 3672 0 199 38 385
181 478 370 66 134 70 162 70 530 0 321 -1 331 -22 375 -34 69 -80 118 -137
148 -43 22 -64 27 -132 27 -70 0 -88 -4 -139 -30 -64 -33 -122 -98 -145 -163
-9 -25 -15 -126 -19 -313 l-6 -276 -29 -37 c-54 -71 81 -66 -1768 -64 l-1673
3 -33 23 c-64 46 -66 57 -72 367 -5 267 -6 282 -28 327 -27 54 -98 123 -148
144 -43 18 -147 26 -189 15z"/>
</g>
</svg>
